# xmcd
#
# Track frame offsets:
#	150
#	9422
#	23479
#	34067
#	43747
#	58059
#	71473
#	83536
#	92600
#	102866
#	116347
#	130954
#	144985
#	150665
#	160343
#	174938
#	185717
#	199973
#	214810
#	228250
#
# Disc length: 3229
#
# Revision: 2
# Processed by: cddbd v1.5.1PL0 Copyright (c) Steve Scherf et al.
# Submitted via: CDex 1.51
# Normalized: r1:DSETVAR1
#
DISCID=010c9b14
DTITLE=Various Artist - Cole Porter Song Book - The Platinum Collection [CD1]
DYEAR=1998
DGENRE=Jazz
TTITLE0=Frank Sinatra - I've Got You Under My Skin
TTITLE1=Ethel Merman with Johnny Green and His Orchestra - I Get A Kick Out Of You
TTITLE2=Tony Bennett - Anything Goes
TTITLE3=Bing Crosby - You'd Be So Nice To Come Home To
TTITLE4=Ella Fitzgerald - My Heart Belongs To Daddy
TTITLE5=Billie Holiday - Let's Do It (Let's Fall In Love)
TTITLE6=Frank Sinatra - You Do Something To Me
TTITLE7=Nat King Cole - True Love
TTITLE8=Frank Sinatra - Just One Of Those Things
TTITLE9=Marlene Dietrich - You Do Something To Me
TTITLE10=The Mills Brothers - Miss Otis Regrets
TTITLE11=Judy Garland - Love Of My LIfe
TTITLE12=Nelson Eddy - Rosalie
TTITLE13=Frank Sinatra - At Long Last Love
TTITLE14=Al Bowlly with Lew Stone and His Band - How Could We Be Wrong?
TTITLE15=Cole Porter - I'm A Gigolo
TTITLE16=Jack Hylton and his Orchestra - They All Fall In Love
TTITLE17=Libby Holman with the Brunswick Studio Orchestra - Love For Sale
TTITLE18=Ambrose and his Orchestra with vocal by Sam Browne - All Through The Night
TTITLE19=Frankie Laine - Don't Fence Me In
EXTD=YEAR: 1998
EXTT0=
EXTT1=
EXTT2=
EXTT3=
EXTT4=
EXTT5=
EXTT6=
EXTT7=
EXTT8=
EXTT9=
EXTT10=
EXTT11=
EXTT12=
EXTT13=
EXTT14=
EXTT15=
EXTT16=
EXTT17=
EXTT18=
EXTT19=
PLAYORDER=
